<svg width="48" height="48" viewBox="0 0 48 48" fill="none" xmlns="http://www.w3.org/2000/svg">
<path d="M35.7603 23.2883H47.2058V44.938H35.7603V23.2883Z" fill="#FFECC7"/>
<path d="M18 33.8235H24V44.9297H18V33.8235Z" fill="white"/>
<path d="M30.0001 44.9297V33.8235H18.0001V44.9297H12.207V20.4166L23.967 13.7959L35.727 20.4166V44.9297H30.0001ZM24.0001 18.1159C22.5421 18.1159 21.3601 19.2979 21.3601 20.7559C21.3601 22.2139 22.5421 23.3959 24.0001 23.3959C25.4581 23.3959 26.6401 22.2139 26.6401 20.7559C26.6356 19.2998 25.4563 18.1204 24.0001 18.1159Z" fill="#FFECC7"/>
<path d="M24 33.8235H30V44.9297H24V33.8235Z" fill="white"/>
<path d="M23.9999 23.4041C25.4579 23.4041 26.6398 22.2222 26.6398 20.7641C26.6398 19.3061 25.4579 18.1241 23.9999 18.1241C22.5418 18.1241 21.3599 19.3061 21.3599 20.7641C21.3599 22.2222 22.5418 23.4041 23.9999 23.4041Z" fill="white"/>
<path d="M0.794434 23.2883H12.24V44.938H0.794434V23.2883Z" fill="#FFECC7"/>
<path d="M24 4.90759H30.7614V9.25242H24V4.90759Z" fill="#F27668"/>
<path d="M27.7739 6.91858H34.3698V11.2634H27.7739V6.91858Z" fill="#F27668"/>
<path d="M47.1724 22.4607H36.5876V20.4166C36.5871 20.118 36.4258 19.8429 36.1655 19.6966L24.8276 13.3242V10.08H27.0703V11.3131C27.0703 11.7702 27.4409 12.1407 27.8979 12.1407H34.6593C35.1163 12.1405 35.4867 11.7699 35.4866 11.3128C35.4866 11.217 35.4698 11.122 35.4372 11.0318L34.7586 9.10349L35.4455 7.21659C35.6009 6.78676 35.3785 6.31235 34.9487 6.15697C34.8586 6.12438 34.7635 6.10773 34.6676 6.10763H31.589V4.90762C31.589 4.45059 31.2184 4.08004 30.7614 4.08004H24.8276V3.07038C24.8276 2.61335 24.457 2.2428 24 2.2428C23.543 2.2428 23.1724 2.61335 23.1724 3.07038V13.3242L11.8345 19.6883C11.5742 19.8346 11.4129 20.1098 11.4124 20.4083V22.4524H0.827586C0.370552 22.4524 0 22.823 0 23.28V44.9297C0 45.3867 0.370552 45.7573 0.827586 45.7573H47.1724C47.6294 45.7573 48 45.3867 48 44.9297V23.2883C48 22.8313 47.6294 22.4607 47.1724 22.4607ZM31.5559 9.21935V7.7959H33.4428L33.1035 8.85521C33.0357 9.03956 33.0357 9.2419 33.1035 9.42625L33.4924 10.4856H28.7255V10.08H30.7614C31.2184 10.08 31.589 9.70949 31.589 9.25245L31.5559 9.21935ZM24.8276 5.73521H29.9338V6.96831V8.42487H24.8276V5.73521ZM11.4124 44.1021H1.65517V24.1159H11.4124V44.1021ZM23.1724 44.1021H18.8276V34.6511H23.1724V44.1021ZM29.1724 44.1021H24.8276V34.6511H29.1724V44.1021ZM34.9655 23.28V44.1021H30.8276V33.8235C30.8276 33.3664 30.457 32.9959 30 32.9959H18C17.543 32.9959 17.1724 33.3664 17.1724 33.8235V44.1021H13.0345V20.9297L24 14.7559L34.9324 20.8966L34.9655 23.28ZM46.3448 44.1021H36.5876V24.1159H46.3448V44.1021Z" fill="#42362C"/>
<path d="M20.5322 20.7642C20.5368 22.6793 22.0929 24.2281 24.0081 24.2235C25.9232 24.2189 27.4719 22.6628 27.4674 20.7476C27.4628 18.8358 25.9117 17.2883 23.9998 17.2883C22.0833 17.2929 20.5322 18.8477 20.5322 20.7642ZM25.8205 20.7642C25.8159 21.7652 25.0008 22.5729 23.9998 22.5683C22.9988 22.5638 22.1911 21.7486 22.1957 20.7476C22.2002 19.7532 23.0053 18.9481 23.9998 18.9435C25.0021 18.9481 25.8122 19.7619 25.8122 20.7642H25.8205Z" fill="#42362C"/>
<path d="M3.64941 25.9366H5.30459V29.247H3.64941V25.9366Z" fill="#42362C"/>
<path d="M7.72949 25.9366H9.38466V29.247H7.72949V25.9366Z" fill="#42362C"/>
<path d="M15.5503 25.9366H18.8606V27.5918H15.5503V25.9366Z" fill="#42362C"/>
<path d="M22.3447 25.9366H25.6551V27.5918H22.3447V25.9366Z" fill="#42362C"/>
<path d="M29.1392 25.9366H32.4495V27.5918H29.1392V25.9366Z" fill="#42362C"/>
<path d="M15.5503 29.7931H18.8606V31.4483H15.5503V29.7931Z" fill="#42362C"/>
<path d="M22.3447 29.7931H25.6551V31.4483H22.3447V29.7931Z" fill="#42362C"/>
<path d="M29.1392 29.7931H32.4495V31.4483H29.1392V29.7931Z" fill="#42362C"/>
<path d="M3.64941 32.4497H5.30459V35.7601H3.64941V32.4497Z" fill="#42362C"/>
<path d="M7.72949 32.4497H9.38466V35.7601H7.72949V32.4497Z" fill="#42362C"/>
<path d="M3.64941 38.9711H5.30459V42.2814H3.64941V38.9711Z" fill="#42362C"/>
<path d="M7.72949 38.9711H9.38466V42.2814H7.72949V38.9711Z" fill="#42362C"/>
<path d="M38.6152 25.9366H40.2704V29.247H38.6152V25.9366Z" fill="#42362C"/>
<path d="M42.6953 25.9366H44.3505V29.247H42.6953V25.9366Z" fill="#42362C"/>
<path d="M38.6152 32.4497H40.2704V35.7601H38.6152V32.4497Z" fill="#42362C"/>
<path d="M42.6953 32.4497H44.3505V35.7601H42.6953V32.4497Z" fill="#42362C"/>
<path d="M38.6152 38.9711H40.2704V42.2814H38.6152V38.9711Z" fill="#42362C"/>
<path d="M42.6953 38.9711H44.3505V42.2814H42.6953V38.9711Z" fill="#42362C"/>
</svg>
