<svg width="28" height="28" viewBox="0 0 28 28" fill="none" xmlns="http://www.w3.org/2000/svg">
<g clip-path="url(#clip0)">
<path d="M0.254648 16.2322L13.0884 24.9825C13.3549 25.1636 13.7177 25.0943 13.8987 24.8278C13.9643 24.7313 13.9994 24.6173 13.9996 24.5006V19.2388C22.9715 18.8678 27.8834 9.98916 28 3.52909V3.49994C28 3.17777 27.7388 2.91657 27.4167 2.91657C27.0981 2.91652 26.8384 3.17208 26.8333 3.49059V3.52444C26.768 5.09135 20.6358 11.8501 13.9996 12.2327V7.00006C13.9992 6.67788 13.7377 6.41702 13.4156 6.41734C13.2989 6.41745 13.1849 6.45262 13.0884 6.51819L0.254593 15.2685C-0.011525 15.4501 -0.0800507 15.813 0.101572 16.0791C0.142644 16.1392 0.194544 16.1912 0.254648 16.2322Z" fill="#2196F3"/>
</g>
<defs>
<clipPath id="clip0">
<rect width="28" height="28" fill="white"/>
</clipPath>
</defs>
</svg>
