<svg width="28" height="28" viewBox="0 0 28 28" fill="none" xmlns="http://www.w3.org/2000/svg">
<path d="M28 14C28 21.7321 21.7321 28 14 28C6.26791 28 0 21.7321 0 14C0 6.26791 6.26791 0 14 0C21.7321 0 28 6.26791 28 14Z" fill="#FFE955"/>
<path d="M28 14C28 14.9417 27.9071 15.8622 27.7298 16.7513C27.6385 17.2073 27.5253 17.6559 27.3914 18.0945C25.6407 23.8284 20.307 28 14 28C8.28195 28 3.36392 24.5711 1.19052 19.6574C0.783142 18.7365 0.471893 17.7636 0.27066 16.7513C0.0929261 15.8615 0 14.9417 0 14C0 11.4724 0.669922 9.10162 1.84186 7.05469C4.25473 11.2695 8.79593 14.1094 14 14.1094C19.2041 14.1094 23.7459 11.2695 26.1581 7.05469C27.3301 9.10162 28 11.4724 28 14Z" fill="#FFD112"/>
<path d="M9.54248 12.7123C9.54248 12.7069 9.54269 12.7018 9.54269 12.6965C9.54269 11.7352 8.7634 10.9557 7.80188 10.9557C7.5733 10.9557 7.35541 11.0001 7.15567 11.08C6.76965 10.3885 6.03094 9.92044 5.18265 9.92044C4.08078 9.92044 3.16391 10.7094 2.96481 11.7529C2.90521 11.7444 2.84454 11.7399 2.78281 11.7399C2.18381 11.7399 1.68201 12.1545 1.54785 12.7123H9.54248Z" fill="white"/>
<path d="M7.84354 12.7123C7.84354 12.7093 7.84375 12.7063 7.84375 12.7033C7.84375 12.1505 7.39557 11.7021 6.84271 11.7021C6.71133 11.7021 6.58594 11.7277 6.47101 11.7736C6.24905 11.3761 5.82437 11.1069 5.33646 11.1069C4.70306 11.1069 4.17584 11.5606 4.06113 12.1607C4.02695 12.1558 3.99213 12.153 3.95667 12.153C3.6123 12.153 3.3237 12.3916 3.24658 12.7123H7.84354Z" fill="#D0F6FF"/>
<path d="M26.1072 12.7123C26.1072 12.7069 26.1076 12.7018 26.1076 12.6965C26.1076 11.7352 25.3281 10.9557 24.3666 10.9557C24.1382 10.9557 23.9203 11.0001 23.7204 11.08C23.3344 10.3885 22.5957 9.92044 21.7474 9.92044C20.6457 9.92044 19.7289 10.7094 19.5295 11.7529C19.4702 11.7444 19.4095 11.7399 19.3477 11.7399C18.7487 11.7399 18.2469 12.1545 18.1128 12.7123H26.1072Z" fill="white"/>
<path d="M24.4085 12.7123C24.4085 12.7093 24.4089 12.7063 24.4089 12.7033C24.4089 12.1505 23.9605 11.7021 23.4077 11.7021C23.2763 11.7021 23.1511 11.7277 23.0362 11.7736C22.8142 11.3761 22.3893 11.1069 21.9016 11.1069C21.268 11.1069 20.7408 11.5606 20.6263 12.1607C20.5921 12.1558 20.5573 12.153 20.5216 12.153C20.1772 12.153 19.8886 12.3916 19.8115 12.7123H24.4085Z" fill="#D0F6FF"/>
<path d="M11.4512 5.83276C11.4512 5.82935 11.4514 5.82593 11.4514 5.82251C11.4514 5.18869 10.9376 4.67471 10.3036 4.67471C10.153 4.67471 10.0094 4.70398 9.87762 4.75674C9.6232 4.30087 9.13614 3.9924 8.57687 3.9924C7.85056 3.9924 7.24622 4.51236 7.11484 5.20044C7.07553 5.19467 7.03558 5.19168 6.99478 5.19168C6.60001 5.19168 6.2691 5.46512 6.18066 5.83276H11.4512Z" fill="white"/>
<path d="M10.3312 5.83276C10.3312 5.83084 10.3315 5.82892 10.3315 5.82678C10.3315 5.46234 10.036 5.1669 9.67157 5.1669C9.58505 5.1669 9.50238 5.18378 9.42654 5.21411C9.28021 4.95178 9.00015 4.77448 8.67865 4.77448C8.26102 4.77448 7.91345 5.07355 7.83783 5.46918C7.8154 5.46597 7.79233 5.46405 7.76904 5.46405C7.54196 5.46405 7.35162 5.62128 7.30078 5.83276H10.3312Z" fill="#D0F6FF"/>
<path d="M22.1189 5.83276C22.1189 5.82935 22.1191 5.82593 22.1191 5.82251C22.1191 5.18869 21.6054 4.67471 20.9716 4.67471C20.821 4.67471 20.6772 4.70398 20.5454 4.75674C20.291 4.30087 19.8041 3.9924 19.2446 3.9924C18.5185 3.9924 17.914 4.51236 17.7826 5.20044C17.7435 5.19467 17.7036 5.19168 17.6628 5.19168C17.268 5.19168 16.9371 5.46512 16.8486 5.83276H22.1189Z" fill="white"/>
<path d="M20.9987 5.83276C20.9987 5.83084 20.9989 5.82892 20.9989 5.82678C20.9989 5.46234 20.7033 5.1669 20.3388 5.1669C20.2523 5.1669 20.1696 5.18378 20.094 5.21411C19.9477 4.95178 19.6676 4.77448 19.3459 4.77448C18.9283 4.77448 18.5807 5.07355 18.5053 5.46918C18.4827 5.46597 18.4598 5.46405 18.4363 5.46405C18.2092 5.46405 18.0191 5.62128 17.9683 5.83276H20.9987Z" fill="#D0F6FF"/>
<path d="M17.3185 10.0253C17.3185 11.8578 15.8327 13.3438 14.0001 13.3438H13.9902C12.162 13.3382 10.6816 11.8546 10.6816 10.0253C10.6816 8.19608 12.162 6.71225 13.9902 6.70734H14.0001C15.8327 6.70734 17.3185 8.19266 17.3185 10.0253Z" fill="#FF9F00"/>
<path d="M13.9902 6.70734H14.0001C15.8327 6.70734 17.3185 8.19266 17.3185 10.0253C17.3185 11.8578 15.8327 13.3438 14.0001 13.3438H13.9902" fill="#FF9F00"/>
<path d="M17.3181 10.0255C17.3181 11.8578 15.8326 13.3438 13.9999 13.3438H13.9995V6.70734H13.9999C15.8326 6.70734 17.3181 8.19287 17.3181 10.0255Z" fill="#EB7722"/>
<path d="M27.7296 16.7513C27.6416 17.1922 27.5329 17.6263 27.4043 18.0507C27.4 18.0655 27.3955 18.0798 27.3912 18.0945C27.2163 18.6677 27.0056 19.2248 26.7617 19.7635C24.565 24.6203 19.6769 28 13.9998 28C8.32281 28 3.43469 24.6203 1.23843 19.7635C1.2222 19.7279 1.20618 19.6931 1.19037 19.6574C0.960724 19.1378 0.7612 18.6014 0.595428 18.0507C0.466827 17.6258 0.358093 17.1922 0.270508 16.7513H27.7296Z" fill="white"/>
<path d="M0.605469 18.0826C0.769318 18.6222 0.965424 19.1479 1.19058 19.6574C1.20639 19.6931 1.22241 19.7279 1.23865 19.7635C3.43491 24.6203 8.32303 28 14.0001 28C19.6771 28 24.5652 24.6203 26.7619 19.7635C27.0059 19.2248 27.2165 18.6677 27.3914 18.0945C27.3925 18.0905 27.3938 18.0866 27.3949 18.0826H0.605469Z" fill="#D0F6FF"/>
<path d="M26.762 19.7635C26.4683 20.4132 26.1265 21.0361 25.7405 21.6283C25.4692 22.0457 25.1761 22.4475 24.8623 22.8327C24.5647 23.1984 24.2485 23.5485 23.9161 23.882C21.3813 26.426 17.8749 28 14.0002 28C10.1255 28 6.61844 26.4256 4.08423 23.882C3.75183 23.5485 3.4361 23.1984 3.13873 22.8327C2.82535 22.4475 2.53162 22.0457 2.26032 21.6278C1.8743 21.0355 1.5325 20.4128 1.23877 19.7635H26.762Z" fill="#0F9BE8"/>
<path d="M25.7404 21.6283C25.4691 22.0457 25.176 22.4475 24.8622 22.8327C24.5646 23.1984 24.2485 23.5485 23.9161 23.882C21.3812 26.426 17.8748 28 14.0001 28C10.1254 28 6.61838 26.4256 4.08417 23.882C3.75177 23.5485 3.43604 23.1984 3.13867 22.8327C2.82529 22.4475 2.53156 22.0457 2.26025 21.6278C2.64371 21.408 3.06262 21.2089 3.82056 21.2089C5.51694 21.2089 5.51694 22.2048 7.21332 22.2048C8.91034 22.2048 8.91034 21.2089 10.6067 21.2089C12.3031 21.2089 12.3031 22.2048 13.9995 22.2048C15.6961 22.2048 15.6961 21.2089 17.3929 21.2089C19.0893 21.2089 19.0893 22.2048 20.7856 22.2048C22.4827 22.2048 22.4827 21.2089 24.179 21.2089C24.9376 21.2089 25.3576 21.408 25.7404 21.6283Z" fill="#84C3F7"/>
<path d="M16.6885 23.7754C16.8955 24.0305 17.2986 24.2037 17.7619 24.2037C18.2251 24.2037 18.6282 24.0305 18.8352 23.7754H16.6885Z" fill="#D0F6FF"/>
<path d="M20.8701 23.7754C21.0771 24.0305 21.4802 24.2037 21.9436 24.2037C22.4067 24.2037 22.8098 24.0305 23.0168 23.7754H20.8701Z" fill="#D0F6FF"/>
<path d="M18.2539 23.7754H17.2695V16.3582C17.2695 15.2958 18.1341 14.4315 19.1964 14.4315C20.2588 14.4315 21.1229 15.2958 21.1229 16.3582V16.7513H20.1385V16.3582C20.1385 15.8387 19.7159 15.4159 19.1964 15.4159C18.6767 15.4159 18.2539 15.8387 18.2539 16.3582V23.7754Z" fill="#535E89"/>
<path d="M22.4355 23.7754H21.4512V16.3582C21.4512 15.2958 22.3155 14.4315 23.3778 14.4315C24.44 14.4315 25.3045 15.2958 25.3045 16.3582V16.7513H24.3201V16.3582C24.3201 15.8387 23.8974 15.4159 23.3778 15.4159C22.8581 15.4159 22.4355 15.8387 22.4355 16.3582V23.7754Z" fill="#535E89"/>
<path d="M17.7617 17.4272H21.9434V18.4115H17.7617V17.4272Z" fill="#535E89"/>
<path d="M17.7617 19.5416H21.9434V20.526H17.7617V19.5416Z" fill="#535E89"/>
<path d="M17.7617 21.7408H21.9434V22.7252H17.7617V21.7408Z" fill="#535E89"/>
</svg>
